<?xml version="1.0" standalone="no"?>
<!DOCTYPE svg PUBLIC "-//W3C//DTD SVG 20010904//EN"
 "http://www.w3.org/TR/2001/REC-SVG-20010904/DTD/svg10.dtd">
<svg version="1.0" xmlns="http://www.w3.org/2000/svg"
 width="520.000000pt" height="520.000000pt" viewBox="0 0 520.000000 520.000000"
 preserveAspectRatio="xMidYMid meet">
<metadata>
Created by potrace 1.14, written by Peter Selinger 2001-2017
</metadata>
<g transform="translate(0.000000,520.000000) scale(0.100000,-0.100000)"
fill="#000000" stroke="none">
<path d="M630 4377 c-58 -59 -107 -113 -109 -118 -2 -6 30 -45 71 -87 41 -42
92 -99 113 -127 22 -27 43 -52 46 -55 12 -11 98 -137 112 -166 l16 -32 -47
-12 c-233 -58 -475 -257 -568 -466 -42 -95 -54 -143 -59 -239 -7 -141 24 -242
103 -342 102 -127 253 -182 414 -148 153 32 301 147 425 330 89 133 149 301
160 454 3 42 6 77 8 79 2 2 106 -32 140 -47 88 -37 260 -128 258 -136 -1 -5
-22 -55 -47 -110 -43 -96 -88 -232 -100 -305 -3 -19 -8 -46 -12 -60 -3 -14 -7
-97 -10 -185 -6 -253 38 -451 147 -669 40 -79 132 -223 154 -241 22 -19 162
-220 222 -320 135 -224 187 -373 209 -596 l7 -69 211 0 211 0 0 273 0 272 40
-2 c54 -3 390 -3 440 0 l40 2 2 -260 c0 -143 2 -266 2 -272 1 -10 48 -13 201
-13 110 0 200 1 200 3 1 1 3 20 6 42 26 208 42 279 85 374 34 75 76 129 178
229 157 153 314 273 621 470 80 51 219 142 310 202 l165 108 3 425 c3 473 9
431 -67 443 -105 17 -300 97 -406 167 -119 79 -274 223 -334 310 -120 176
-162 473 -94 681 12 39 13 50 3 56 -20 12 -200 5 -245 -10 -40 -13 -85 -40
-116 -70 -50 -48 -113 -174 -124 -250 -4 -25 -8 -47 -11 -49 -2 -2 -41 12 -86
32 -75 32 -200 73 -253 83 -11 2 -31 6 -45 9 -92 21 -367 28 -460 12 -25 -4
-61 -10 -80 -13 -246 -42 -513 -184 -720 -381 -24 -24 -47 -42 -50 -41 -292
150 -430 206 -580 237 l-85 18 -52 101 c-87 170 -217 349 -365 502 -96 99 -79
101 -198 -23z m349 -959 c-3 -81 -35 -200 -71 -261 -15 -26 -28 -50 -28 -53 0
-8 -69 -94 -101 -125 -14 -15 -47 -39 -72 -54 -53 -30 -111 -30 -135 2 -128
166 56 452 343 534 33 10 61 18 63 18 2 1 2 -27 1 -61z m2198 -7 c380 -109
635 -438 637 -821 1 -174 -26 -291 -100 -428 -129 -238 -365 -405 -634 -447
-65 -11 -210 -8 -282 5 -325 59 -592 306 -680 629 -27 98 -34 310 -14 389 8
28 12 52 10 52 -6 0 41 121 71 180 118 236 372 422 625 457 19 3 37 7 39 9 3
2 61 2 130 0 87 -3 149 -11 198 -25z"/>
<path d="M2828 3179 c-228 -46 -404 -211 -473 -444 -24 -81 -25 -239 -1 -320
79 -273 304 -452 577 -460 104 -3 149 4 248 42 192 72 335 242 382 452 19 87
5 295 -22 326 -5 5 -9 16 -9 24 0 30 -85 158 -145 217 -149 148 -348 206 -557
163z"/>
</g>
</svg>
